<svg width="25" height="25" viewBox="0 0 25 25" fill="none" xmlns="http://www.w3.org/2000/svg">
<path fill-rule="evenodd" clip-rule="evenodd" d="M10.2623 2.20215C8.61448 2.20215 7.27869 3.49555 7.27869 5.09104V7.09104H12.4426V7.64659H4.9836C3.3358 7.64659 2 8.94 2 10.5355V14.8688C2 16.4643 3.3358 17.7577 4.9836 17.7577H6.70492V15.3133C6.70492 13.7178 8.04073 12.4243 9.68855 12.4243H15.1967C16.591 12.4243 17.7213 11.3299 17.7213 9.97995V5.09104C17.7213 3.49555 16.3855 2.20215 14.7377 2.20215H10.2623ZM9.5738 5.7577C10.1442 5.7577 10.6066 5.30998 10.6066 4.75771C10.6066 4.20542 10.1442 3.7577 9.5738 3.7577C9.00335 3.7577 8.54098 4.20542 8.54098 4.75771C8.54098 5.30998 9.00335 5.7577 9.5738 5.7577Z" fill="url(#paint0_linear_21_692)"/>
<path fill-rule="evenodd" clip-rule="evenodd" d="M14.7383 23.202C16.3861 23.202 17.7219 21.9086 17.7219 20.3132V18.3131H12.558V17.7576H20.017C21.6648 17.7576 23.0006 16.4642 23.0006 14.8687V10.5353C23.0006 8.93987 21.6648 7.64648 20.017 7.64648H18.2957V10.0909C18.2957 11.6864 16.9599 12.9798 15.3121 12.9798H9.80388C8.40955 12.9798 7.2793 14.0742 7.2793 15.4242V20.3132C7.2793 21.9086 8.61513 23.202 10.2629 23.202H14.7383ZM15.4269 19.6465C14.8564 19.6465 14.394 20.0942 14.394 20.6465C14.394 21.1988 14.8564 21.6464 15.4269 21.6464C15.9972 21.6464 16.4596 21.1988 16.4596 20.6465C16.4596 20.0942 15.9972 19.6465 15.4269 19.6465Z" fill="url(#paint1_linear_21_692)"/>
<defs>
<linearGradient id="paint0_linear_21_692" x1="9.86067" y1="2.20215" x2="9.86067" y2="17.7577" gradientUnits="userSpaceOnUse">
<stop stop-color="#327EBD"/>
<stop offset="1" stop-color="#1565A7"/>
</linearGradient>
<linearGradient id="paint1_linear_21_692" x1="15.14" y1="7.64648" x2="15.14" y2="23.202" gradientUnits="userSpaceOnUse">
<stop stop-color="#FFDA4B"/>
<stop offset="1" stop-color="#F9C600"/>
</linearGradient>
</defs>
</svg>
