<svg width="544" height="292" viewBox="0 0 544 292" fill="none" xmlns="http://www.w3.org/2000/svg">
<g filter="url(#filter0_d_329_15210)">
<path d="M239.946 28C239.946 23.5817 243.528 20 247.946 20H514C518.418 20 522 23.5817 522 28V148.374C522 152.792 518.418 156.374 514 156.374H247.946C243.528 156.374 239.946 152.792 239.946 148.374V28Z" fill="#DDF3FD"/>
<path d="M373.874 79.366C373.248 79.3617 372.636 79.2531 372.039 79.04C371.443 78.8227 370.906 78.4711 370.429 77.9853C369.951 77.4953 369.572 76.8454 369.291 76.0357C369.01 75.2218 368.871 74.214 368.875 73.0123C368.875 71.8916 368.995 70.8923 369.233 70.0144C369.472 69.1366 369.815 68.3951 370.262 67.79C370.71 67.1806 371.249 66.7161 371.88 66.3965C372.515 66.0769 373.224 65.9171 374.008 65.9171C374.831 65.9171 375.559 66.0791 376.194 66.4029C376.834 66.7268 377.349 67.17 377.741 67.7325C378.133 68.2907 378.376 68.9214 378.47 69.6245H376.137C376.017 69.1217 375.772 68.7211 375.402 68.4228C375.035 68.1203 374.571 67.969 374.008 67.969C373.101 67.969 372.402 68.3631 371.912 69.1515C371.426 69.9399 371.181 71.0222 371.177 72.3987H371.266C371.475 72.0237 371.745 71.7019 372.078 71.4335C372.41 71.165 372.785 70.9583 373.203 70.8134C373.625 70.6643 374.07 70.5897 374.539 70.5897C375.306 70.5897 375.994 70.7729 376.603 71.1394C377.217 71.5059 377.703 72.0109 378.061 72.6543C378.419 73.2935 378.596 74.0265 378.591 74.8532C378.596 75.714 378.4 76.4874 378.003 77.1735C377.607 77.8553 377.055 78.3923 376.348 78.7843C375.64 79.1764 374.816 79.3703 373.874 79.366ZM373.861 77.4484C374.326 77.4484 374.741 77.3354 375.108 77.1096C375.474 76.8837 375.764 76.5791 375.977 76.1955C376.19 75.812 376.294 75.3816 376.29 74.9043C376.294 74.4356 376.192 74.0116 375.983 73.6323C375.779 73.2531 375.495 72.9526 375.133 72.731C374.771 72.5095 374.358 72.3987 373.893 72.3987C373.548 72.3987 373.226 72.4647 372.928 72.5968C372.63 72.7289 372.37 72.9122 372.148 73.1465C371.927 73.3766 371.752 73.6451 371.624 73.9519C371.5 74.2545 371.436 74.5783 371.432 74.9235C371.436 75.3795 371.543 75.7992 371.752 76.1828C371.961 76.5663 372.248 76.8731 372.615 77.1032C372.981 77.3333 373.397 77.4484 373.861 77.4484ZM381.19 79.3276C380.803 79.3276 380.47 79.1913 380.193 78.9185C379.916 78.6458 379.78 78.3134 379.784 77.9214C379.78 77.5379 379.916 77.2097 380.193 76.937C380.47 76.6643 380.803 76.5279 381.19 76.5279C381.565 76.5279 381.891 76.6643 382.168 76.937C382.45 77.2097 382.592 77.5379 382.597 77.9214C382.592 78.1813 382.524 78.4178 382.392 78.6309C382.264 78.844 382.094 79.0144 381.881 79.1423C381.672 79.2658 381.442 79.3276 381.19 79.3276ZM388.671 79.366C387.721 79.366 386.877 79.2062 386.14 78.8866C385.407 78.567 384.832 78.1302 384.414 77.5762C384.001 77.018 383.796 76.3852 383.801 75.6778C383.796 75.1281 383.916 74.6231 384.158 74.1629C384.401 73.7026 384.729 73.3191 385.143 73.0123C385.56 72.7012 386.025 72.5031 386.536 72.4178V72.3283C385.863 72.1792 385.318 71.8362 384.9 71.2992C384.487 70.758 384.282 70.1337 384.286 69.4264C384.282 68.7531 384.47 68.1522 384.849 67.6238C385.228 67.0954 385.748 66.6799 386.408 66.3774C387.069 66.0705 387.823 65.9171 388.671 65.9171C389.511 65.9171 390.259 66.0705 390.915 66.3774C391.575 66.6799 392.095 67.0954 392.475 67.6238C392.858 68.1522 393.05 68.7531 393.05 69.4264C393.05 70.1337 392.839 70.758 392.417 71.2992C391.999 71.8362 391.46 72.1792 390.8 72.3283V72.4178C391.311 72.5031 391.771 72.7012 392.18 73.0123C392.594 73.3191 392.922 73.7026 393.165 74.1629C393.412 74.6231 393.536 75.1281 393.536 75.6778C393.536 76.3852 393.327 77.018 392.909 77.5762C392.492 78.1302 391.916 78.567 391.183 78.8866C390.455 79.2062 389.617 79.366 388.671 79.366ZM388.671 77.5379C389.161 77.5379 389.587 77.4548 389.95 77.2886C390.312 77.1181 390.593 76.8795 390.793 76.5727C390.994 76.2658 391.096 75.9122 391.1 75.5116C391.096 75.094 390.987 74.7254 390.774 74.4058C390.565 74.0819 390.278 73.8283 389.911 73.6451C389.549 73.4619 389.136 73.3703 388.671 73.3703C388.203 73.3703 387.785 73.4619 387.418 73.6451C387.052 73.8283 386.762 74.0819 386.549 74.4058C386.34 74.7254 386.238 75.094 386.242 75.5116C386.238 75.9122 386.336 76.2658 386.536 76.5727C386.737 76.8752 387.018 77.1117 387.38 77.2822C387.747 77.4526 388.177 77.5379 388.671 77.5379ZM388.671 71.5741C389.072 71.5741 389.426 71.4931 389.732 71.3312C390.043 71.1693 390.288 70.9434 390.467 70.6536C390.646 70.3639 390.738 70.0293 390.742 69.6501C390.738 69.2751 390.649 68.947 390.474 68.6657C390.299 68.3802 390.056 68.1607 389.745 68.0073C389.434 67.8497 389.076 67.7708 388.671 67.7708C388.258 67.7708 387.894 67.8497 387.578 68.0073C387.267 68.1607 387.024 68.3802 386.85 68.6657C386.679 68.947 386.596 69.2751 386.6 69.6501C386.596 70.0293 386.681 70.3639 386.856 70.6536C387.035 70.9391 387.28 71.165 387.591 71.3312C387.906 71.4931 388.266 71.5741 388.671 71.5741Z" fill="#020617"/>
<path d="M334.183 101.187H332.95C332.877 100.832 332.749 100.521 332.567 100.252C332.388 99.9839 332.169 99.7585 331.911 99.5762C331.656 99.3906 331.372 99.2514 331.061 99.1586C330.749 99.0658 330.424 99.0194 330.086 99.0194C329.47 99.0194 328.911 99.1752 328.411 99.4867C327.914 99.7983 327.518 100.257 327.223 100.864C326.931 101.47 326.785 102.214 326.785 103.096C326.785 103.978 326.931 104.722 327.223 105.328C327.518 105.935 327.914 106.394 328.411 106.705C328.911 107.017 329.47 107.173 330.086 107.173C330.424 107.173 330.749 107.126 331.061 107.034C331.372 106.941 331.656 106.803 331.911 106.621C332.169 106.435 332.388 106.208 332.567 105.94C332.749 105.668 332.877 105.357 332.95 105.005H334.183C334.09 105.526 333.921 105.991 333.676 106.402C333.431 106.813 333.126 107.163 332.761 107.451C332.397 107.736 331.987 107.953 331.533 108.102C331.082 108.252 330.6 108.326 330.086 108.326C329.218 108.326 328.446 108.114 327.77 107.69C327.093 107.266 326.562 106.662 326.174 105.88C325.786 105.098 325.592 104.17 325.592 103.096C325.592 102.022 325.786 101.094 326.174 100.312C326.562 99.5298 327.093 98.9266 327.77 98.5024C328.446 98.0781 329.218 97.866 330.086 97.866C330.6 97.866 331.082 97.9406 331.533 98.0897C331.987 98.2389 332.397 98.4576 332.761 98.746C333.126 99.031 333.431 99.379 333.676 99.79C333.921 100.198 334.09 100.663 334.183 101.187ZM336.593 98.0052L339.616 106.576H339.735L342.758 98.0052H344.05L340.312 108.187H339.039L335.3 98.0052H336.593ZM351.204 100.551C351.145 100.047 350.903 99.6558 350.479 99.3774C350.054 99.0989 349.534 98.9597 348.918 98.9597C348.467 98.9597 348.072 99.0327 347.734 99.1785C347.4 99.3243 347.138 99.5248 346.949 99.7801C346.763 100.035 346.67 100.325 346.67 100.65C346.67 100.922 346.735 101.156 346.864 101.351C346.997 101.543 347.166 101.704 347.371 101.833C347.577 101.959 347.792 102.064 348.018 102.147C348.243 102.226 348.45 102.291 348.639 102.34L349.673 102.619C349.938 102.688 350.233 102.785 350.558 102.907C350.886 103.03 351.199 103.197 351.498 103.409C351.799 103.618 352.048 103.887 352.244 104.215C352.439 104.543 352.537 104.946 352.537 105.423C352.537 105.973 352.393 106.47 352.104 106.914C351.819 107.358 351.402 107.711 350.851 107.973C350.305 108.235 349.64 108.366 348.858 108.366C348.129 108.366 347.497 108.248 346.964 108.013C346.433 107.778 346.016 107.45 345.711 107.029C345.409 106.608 345.239 106.119 345.199 105.562H346.472C346.505 105.946 346.634 106.265 346.859 106.517C347.088 106.765 347.376 106.951 347.724 107.073C348.076 107.193 348.454 107.252 348.858 107.252C349.329 107.252 349.751 107.176 350.126 107.024C350.5 106.868 350.797 106.652 351.016 106.377C351.234 106.099 351.344 105.774 351.344 105.403C351.344 105.065 351.249 104.79 351.06 104.578C350.871 104.366 350.623 104.193 350.315 104.061C350.006 103.928 349.673 103.812 349.315 103.713L348.062 103.355C347.267 103.126 346.637 102.799 346.173 102.375C345.709 101.951 345.477 101.396 345.477 100.71C345.477 100.14 345.631 99.6425 345.94 99.2183C346.251 98.7907 346.669 98.4593 347.192 98.2239C347.719 97.9853 348.308 97.866 348.957 97.866C349.614 97.866 350.197 97.9836 350.707 98.219C351.218 98.451 351.622 98.7692 351.92 99.1735C352.222 99.5779 352.381 100.037 352.398 100.551H351.204ZM360.132 100.551C360.073 100.047 359.831 99.6558 359.406 99.3774C358.982 99.0989 358.462 98.9597 357.845 98.9597C357.395 98.9597 357 99.0327 356.662 99.1785C356.327 99.3243 356.065 99.5248 355.877 99.7801C355.691 100.035 355.598 100.325 355.598 100.65C355.598 100.922 355.663 101.156 355.792 101.351C355.925 101.543 356.094 101.704 356.299 101.833C356.505 101.959 356.72 102.064 356.945 102.147C357.171 102.226 357.378 102.291 357.567 102.34L358.601 102.619C358.866 102.688 359.161 102.785 359.486 102.907C359.814 103.03 360.127 103.197 360.426 103.409C360.727 103.618 360.976 103.887 361.171 104.215C361.367 104.543 361.465 104.946 361.465 105.423C361.465 105.973 361.32 106.47 361.032 106.914C360.747 107.358 360.329 107.711 359.779 107.973C359.232 108.235 358.568 108.366 357.786 108.366C357.056 108.366 356.425 108.248 355.891 108.013C355.361 107.778 354.944 107.45 354.639 107.029C354.337 106.608 354.166 106.119 354.127 105.562H355.399C355.432 105.946 355.562 106.265 355.787 106.517C356.016 106.765 356.304 106.951 356.652 107.073C357.003 107.193 357.381 107.252 357.786 107.252C358.256 107.252 358.679 107.176 359.053 107.024C359.428 106.868 359.725 106.652 359.943 106.377C360.162 106.099 360.271 105.774 360.271 105.403C360.271 105.065 360.177 104.79 359.988 104.578C359.799 104.366 359.551 104.193 359.242 104.061C358.934 103.928 358.601 103.812 358.243 103.713L356.99 103.355C356.195 103.126 355.565 102.799 355.101 102.375C354.637 101.951 354.405 101.396 354.405 100.71C354.405 100.14 354.559 99.6425 354.867 99.2183C355.179 98.7907 355.596 98.4593 356.12 98.2239C356.647 97.9853 357.235 97.866 357.885 97.866C358.541 97.866 359.125 97.9836 359.635 98.219C360.145 98.451 360.55 98.7692 360.848 99.1735C361.15 99.5779 361.309 100.037 361.325 100.551H360.132ZM363.313 108.187V107.292L366.674 103.613C367.068 103.182 367.393 102.808 367.648 102.49C367.903 102.168 368.092 101.866 368.215 101.585C368.341 101.3 368.404 101.001 368.404 100.69C368.404 100.332 368.318 100.022 368.145 99.7602C367.976 99.4983 367.744 99.2961 367.449 99.1536C367.154 99.0111 366.823 98.9399 366.455 98.9399C366.064 98.9399 365.722 99.0211 365.431 99.1835C365.142 99.3426 364.919 99.5663 364.759 99.8546C364.604 100.143 364.526 100.481 364.526 100.869H363.353C363.353 100.272 363.49 99.7486 363.765 99.2978C364.04 98.847 364.415 98.4957 364.889 98.2438C365.366 97.9919 365.901 97.866 366.495 97.866C367.091 97.866 367.62 97.9919 368.081 98.2438C368.541 98.4957 368.902 98.8354 369.164 99.263C369.426 99.6906 369.557 100.166 369.557 100.69C369.557 101.064 369.489 101.431 369.353 101.789C369.221 102.143 368.989 102.539 368.657 102.977C368.329 103.411 367.873 103.941 367.29 104.568L365.003 107.014V107.093H369.736V108.187H363.313ZM380.122 102.549V103.643H375.667V102.549H380.122ZM386.283 98.0052H387.754L391.215 106.457H391.334L394.794 98.0052H396.266V108.187H395.112V100.451H395.013L391.831 108.187H390.717L387.536 100.451H387.436V108.187H386.283V98.0052ZM401.78 108.346C401.045 108.346 400.41 108.184 399.876 107.859C399.346 107.531 398.937 107.073 398.648 106.487C398.363 105.897 398.221 105.211 398.221 104.428C398.221 103.646 398.363 102.957 398.648 102.36C398.937 101.76 399.338 101.293 399.851 100.958C400.369 100.62 400.972 100.451 401.661 100.451C402.059 100.451 402.452 100.518 402.839 100.65C403.227 100.783 403.58 100.998 403.898 101.296C404.217 101.591 404.47 101.982 404.659 102.47C404.848 102.957 404.942 103.557 404.942 104.269V104.767H399.056V103.752H403.749C403.749 103.321 403.663 102.937 403.491 102.599C403.322 102.261 403.08 101.994 402.765 101.799C402.453 101.603 402.085 101.505 401.661 101.505C401.194 101.505 400.789 101.621 400.448 101.853C400.11 102.082 399.85 102.38 399.668 102.748C399.485 103.116 399.394 103.51 399.394 103.931V104.607C399.394 105.184 399.494 105.673 399.692 106.074C399.895 106.472 400.175 106.775 400.533 106.984C400.891 107.189 401.306 107.292 401.78 107.292C402.089 107.292 402.367 107.249 402.616 107.163C402.868 107.073 403.085 106.941 403.267 106.765C403.449 106.586 403.59 106.364 403.69 106.099L404.823 106.417C404.704 106.802 404.503 107.14 404.222 107.431C403.94 107.72 403.592 107.945 403.177 108.107C402.763 108.267 402.297 108.346 401.78 108.346ZM409.611 108.346C408.974 108.346 408.413 108.185 407.925 107.864C407.438 107.539 407.057 107.082 406.782 106.492C406.507 105.898 406.369 105.197 406.369 104.389C406.369 103.587 406.507 102.891 406.782 102.301C407.057 101.711 407.44 101.255 407.93 100.933C408.421 100.612 408.988 100.451 409.631 100.451C410.128 100.451 410.521 100.534 410.809 100.7C411.101 100.862 411.323 101.048 411.475 101.257C411.631 101.462 411.752 101.631 411.838 101.764H411.937V98.0052H413.111V108.187H411.977V107.014H411.838C411.752 107.153 411.629 107.329 411.47 107.541C411.311 107.75 411.084 107.937 410.789 108.102C410.494 108.265 410.101 108.346 409.611 108.346ZM409.77 107.292C410.24 107.292 410.638 107.169 410.963 106.924C411.288 106.676 411.535 106.333 411.704 105.895C411.873 105.454 411.957 104.946 411.957 104.369C411.957 103.799 411.874 103.3 411.709 102.872C411.543 102.442 411.298 102.107 410.973 101.868C410.648 101.626 410.247 101.505 409.77 101.505C409.273 101.505 408.858 101.633 408.527 101.888C408.199 102.14 407.952 102.483 407.786 102.917C407.624 103.348 407.543 103.832 407.543 104.369C407.543 104.912 407.625 105.406 407.791 105.85C407.96 106.291 408.209 106.643 408.537 106.904C408.868 107.163 409.279 107.292 409.77 107.292ZM415.422 108.187V100.551H416.596V108.187H415.422ZM416.019 99.2779C415.79 99.2779 415.593 99.2 415.427 99.0443C415.265 98.8885 415.184 98.7012 415.184 98.4825C415.184 98.2637 415.265 98.0765 415.427 97.9207C415.593 97.7649 415.79 97.687 416.019 97.687C416.248 97.687 416.443 97.7649 416.606 97.9207C416.771 98.0765 416.854 98.2637 416.854 98.4825C416.854 98.7012 416.771 98.8885 416.606 99.0443C416.443 99.2 416.248 99.2779 416.019 99.2779ZM423.557 105.065V100.551H424.731V108.187H423.557V106.894H423.478C423.299 107.282 423.02 107.612 422.642 107.884C422.265 108.152 421.787 108.286 421.211 108.286C420.733 108.286 420.309 108.182 419.938 107.973C419.567 107.761 419.275 107.443 419.063 107.019C418.851 106.591 418.745 106.053 418.745 105.403V100.551H419.918V105.323C419.918 105.88 420.074 106.324 420.385 106.656C420.7 106.987 421.101 107.153 421.589 107.153C421.88 107.153 422.177 107.078 422.478 106.929C422.783 106.78 423.039 106.551 423.244 106.243C423.453 105.935 423.557 105.542 423.557 105.065ZM426.88 108.187V100.551H428.013V101.744H428.112C428.272 101.336 428.528 101.02 428.883 100.794C429.238 100.566 429.664 100.451 430.161 100.451C430.665 100.451 431.084 100.566 431.419 100.794C431.757 101.02 432.02 101.336 432.209 101.744H432.289C432.484 101.349 432.777 101.036 433.169 100.804C433.56 100.569 434.029 100.451 434.576 100.451C435.258 100.451 435.817 100.665 436.251 101.093C436.685 101.517 436.902 102.178 436.902 103.076V108.187H435.729V103.076C435.729 102.513 435.575 102.11 435.267 101.868C434.958 101.626 434.595 101.505 434.178 101.505C433.641 101.505 433.225 101.668 432.93 101.992C432.635 102.314 432.487 102.722 432.487 103.215V108.187H431.294V102.957C431.294 102.523 431.153 102.173 430.872 101.908C430.59 101.639 430.227 101.505 429.783 101.505C429.478 101.505 429.193 101.586 428.928 101.749C428.666 101.911 428.454 102.137 428.291 102.425C428.132 102.71 428.053 103.04 428.053 103.414V108.187H426.88Z" fill="#64748B"/>
</g>
<g filter="url(#filter1_d_329_15210)">
<path d="M124.584 88.0044C124.584 83.5861 128.166 80.0044 132.584 80.0044H398.638C403.056 80.0044 406.638 83.5861 406.638 88.0044V208.378C406.638 212.796 403.056 216.378 398.638 216.378H132.584C128.166 216.378 124.584 212.796 124.584 208.378V88.0044Z" fill="#FEF2F2"/>
<path d="M258.21 125.922C258.836 125.926 259.445 126.037 260.038 126.254C260.634 126.467 261.171 126.816 261.649 127.302C262.126 127.784 262.505 128.429 262.786 129.239C263.068 130.049 263.208 131.05 263.208 132.243C263.213 133.368 263.093 134.374 262.85 135.26C262.612 136.142 262.269 136.888 261.821 137.498C261.374 138.107 260.835 138.571 260.204 138.891C259.573 139.211 258.864 139.37 258.075 139.37C257.249 139.37 256.516 139.208 255.877 138.885C255.242 138.561 254.728 138.118 254.336 137.555C253.944 136.993 253.703 136.349 253.614 135.625H255.947C256.066 136.145 256.309 136.558 256.676 136.865C257.046 137.167 257.513 137.319 258.075 137.319C258.983 137.319 259.682 136.924 260.172 136.136C260.662 135.348 260.907 134.252 260.907 132.85H260.818C260.609 133.225 260.338 133.549 260.006 133.822C259.673 134.091 259.296 134.297 258.874 134.442C258.457 134.587 258.014 134.659 257.545 134.659C256.778 134.659 256.087 134.476 255.474 134.11C254.864 133.743 254.381 133.24 254.023 132.601C253.669 131.962 253.49 131.231 253.486 130.409C253.486 129.556 253.682 128.792 254.074 128.114C254.47 127.432 255.022 126.895 255.73 126.503C256.437 126.107 257.264 125.913 258.21 125.922ZM258.216 127.839C257.756 127.839 257.34 127.952 256.97 128.178C256.603 128.4 256.313 128.702 256.1 129.086C255.891 129.465 255.787 129.889 255.787 130.358C255.791 130.822 255.896 131.244 256.1 131.623C256.309 132.002 256.592 132.303 256.95 132.525C257.313 132.746 257.726 132.857 258.19 132.857C258.536 132.857 258.857 132.791 259.156 132.659C259.454 132.527 259.714 132.343 259.936 132.109C260.161 131.87 260.336 131.6 260.46 131.297C260.587 130.995 260.649 130.675 260.645 130.338C260.645 129.891 260.538 129.478 260.325 129.098C260.117 128.719 259.829 128.414 259.462 128.184C259.1 127.954 258.685 127.839 258.216 127.839ZM265.828 139.332C265.44 139.332 265.108 139.196 264.831 138.923C264.554 138.65 264.418 138.318 264.422 137.926C264.418 137.542 264.554 137.214 264.831 136.941C265.108 136.669 265.44 136.532 265.828 136.532C266.203 136.532 266.529 136.669 266.806 136.941C267.087 137.214 267.23 137.542 267.234 137.926C267.23 138.186 267.162 138.422 267.03 138.635C266.902 138.848 266.731 139.019 266.518 139.147C266.31 139.27 266.079 139.332 265.828 139.332ZM273.309 139.37C272.359 139.37 271.515 139.211 270.778 138.891C270.045 138.571 269.469 138.135 269.052 137.581C268.638 137.022 268.434 136.39 268.438 135.682C268.434 135.132 268.553 134.627 268.796 134.167C269.039 133.707 269.367 133.324 269.781 133.017C270.198 132.706 270.663 132.507 271.174 132.422V132.333C270.501 132.184 269.955 131.841 269.538 131.304C269.124 130.762 268.92 130.138 268.924 129.431C268.92 128.757 269.107 128.157 269.487 127.628C269.866 127.1 270.386 126.684 271.046 126.382C271.707 126.075 272.461 125.922 273.309 125.922C274.148 125.922 274.896 126.075 275.553 126.382C276.213 126.684 276.733 127.1 277.112 127.628C277.496 128.157 277.688 128.757 277.688 129.431C277.688 130.138 277.477 130.762 277.055 131.304C276.637 131.841 276.098 132.184 275.438 132.333V132.422C275.949 132.507 276.409 132.706 276.818 133.017C277.232 133.324 277.56 133.707 277.803 134.167C278.05 134.627 278.173 135.132 278.173 135.682C278.173 136.39 277.964 137.022 277.547 137.581C277.129 138.135 276.554 138.571 275.821 138.891C275.092 139.211 274.255 139.37 273.309 139.37ZM273.309 137.542C273.799 137.542 274.225 137.459 274.587 137.293C274.95 137.123 275.231 136.884 275.431 136.577C275.631 136.27 275.734 135.917 275.738 135.516C275.734 135.098 275.625 134.73 275.412 134.41C275.203 134.086 274.915 133.833 274.549 133.65C274.187 133.466 273.773 133.375 273.309 133.375C272.84 133.375 272.423 133.466 272.056 133.65C271.69 133.833 271.4 134.086 271.187 134.41C270.978 134.73 270.876 135.098 270.88 135.516C270.876 135.917 270.974 136.27 271.174 136.577C271.374 136.88 271.656 137.116 272.018 137.287C272.384 137.457 272.815 137.542 273.309 137.542ZM273.309 131.578C273.71 131.578 274.063 131.498 274.37 131.336C274.681 131.174 274.926 130.948 275.105 130.658C275.284 130.368 275.376 130.034 275.38 129.654C275.376 129.279 275.286 128.951 275.112 128.67C274.937 128.385 274.694 128.165 274.383 128.012C274.072 127.854 273.714 127.775 273.309 127.775C272.896 127.775 272.531 127.854 272.216 128.012C271.905 128.165 271.662 128.385 271.487 128.67C271.317 128.951 271.234 129.279 271.238 129.654C271.234 130.034 271.319 130.368 271.494 130.658C271.673 130.944 271.918 131.169 272.229 131.336C272.544 131.498 272.904 131.578 273.309 131.578Z" fill="#020617"/>
<path d="M221.651 161.191H220.418C220.345 160.837 220.217 160.525 220.035 160.257C219.856 159.988 219.637 159.763 219.379 159.581C219.124 159.395 218.84 159.256 218.529 159.163C218.217 159.07 217.892 159.024 217.554 159.024C216.938 159.024 216.379 159.18 215.879 159.491C215.382 159.803 214.985 160.262 214.691 160.868C214.399 161.475 214.253 162.219 214.253 163.1C214.253 163.982 214.399 164.726 214.691 165.333C214.985 165.939 215.382 166.398 215.879 166.71C216.379 167.021 216.938 167.177 217.554 167.177C217.892 167.177 218.217 167.131 218.529 167.038C218.84 166.945 219.124 166.808 219.379 166.625C219.637 166.44 219.856 166.213 220.035 165.944C220.217 165.672 220.345 165.361 220.418 165.01H221.651C221.558 165.53 221.389 165.996 221.144 166.407C220.898 166.818 220.593 167.167 220.229 167.456C219.864 167.741 219.455 167.958 219.001 168.107C218.55 168.256 218.068 168.331 217.554 168.331C216.686 168.331 215.914 168.118 215.237 167.694C214.561 167.27 214.029 166.667 213.642 165.885C213.254 165.102 213.06 164.174 213.06 163.1C213.06 162.027 213.254 161.099 213.642 160.316C214.029 159.534 214.561 158.931 215.237 158.507C215.914 158.083 216.686 157.87 217.554 157.87C218.068 157.87 218.55 157.945 219.001 158.094C219.455 158.243 219.864 158.462 220.229 158.75C220.593 159.035 220.898 159.383 221.144 159.794C221.389 160.202 221.558 160.668 221.651 161.191ZM224.061 158.01L227.083 166.581H227.203L230.225 158.01H231.518L227.779 168.191H226.507L222.768 158.01H224.061ZM238.672 160.555C238.613 160.051 238.371 159.66 237.946 159.382C237.522 159.103 237.002 158.964 236.385 158.964C235.935 158.964 235.54 159.037 235.202 159.183C234.867 159.329 234.605 159.529 234.417 159.784C234.231 160.04 234.138 160.33 234.138 160.654C234.138 160.926 234.203 161.16 234.332 161.355C234.465 161.548 234.634 161.708 234.839 161.838C235.045 161.964 235.26 162.068 235.485 162.151C235.711 162.23 235.918 162.295 236.107 162.345L237.141 162.623C237.406 162.693 237.701 162.789 238.026 162.912C238.354 163.034 238.667 163.202 238.966 163.414C239.267 163.623 239.516 163.891 239.711 164.219C239.907 164.547 240.005 164.95 240.005 165.427C240.005 165.977 239.86 166.475 239.572 166.919C239.287 167.363 238.869 167.716 238.319 167.978C237.772 168.239 237.108 168.37 236.326 168.37C235.596 168.37 234.965 168.253 234.431 168.017C233.901 167.782 233.484 167.454 233.179 167.033C232.877 166.612 232.706 166.123 232.667 165.566H233.939C233.972 165.951 234.102 166.269 234.327 166.521C234.556 166.77 234.844 166.955 235.192 167.078C235.543 167.197 235.921 167.257 236.326 167.257C236.796 167.257 237.219 167.181 237.593 167.028C237.968 166.872 238.265 166.657 238.483 166.382C238.702 166.103 238.811 165.779 238.811 165.407C238.811 165.069 238.717 164.794 238.528 164.582C238.339 164.37 238.091 164.198 237.782 164.065C237.474 163.932 237.141 163.816 236.783 163.717L235.53 163.359C234.735 163.13 234.105 162.804 233.641 162.38C233.177 161.955 232.945 161.4 232.945 160.714C232.945 160.144 233.099 159.647 233.407 159.223C233.719 158.795 234.136 158.464 234.66 158.228C235.187 157.99 235.775 157.87 236.425 157.87C237.081 157.87 237.665 157.988 238.175 158.223C238.685 158.455 239.09 158.774 239.388 159.178C239.69 159.582 239.849 160.041 239.865 160.555H238.672ZM247.6 160.555C247.54 160.051 247.298 159.66 246.874 159.382C246.45 159.103 245.93 158.964 245.313 158.964C244.862 158.964 244.468 159.037 244.13 159.183C243.795 159.329 243.533 159.529 243.344 159.784C243.159 160.04 243.066 160.33 243.066 160.654C243.066 160.926 243.131 161.16 243.26 161.355C243.392 161.548 243.561 161.708 243.767 161.838C243.972 161.964 244.188 162.068 244.413 162.151C244.639 162.23 244.846 162.295 245.035 162.345L246.069 162.623C246.334 162.693 246.629 162.789 246.954 162.912C247.282 163.034 247.595 163.202 247.893 163.414C248.195 163.623 248.443 163.891 248.639 164.219C248.835 164.547 248.932 164.95 248.932 165.427C248.932 165.977 248.788 166.475 248.5 166.919C248.215 167.363 247.797 167.716 247.247 167.978C246.7 168.239 246.036 168.37 245.253 168.37C244.524 168.37 243.893 168.253 243.359 168.017C242.829 167.782 242.411 167.454 242.106 167.033C241.805 166.612 241.634 166.123 241.594 165.566H242.867C242.9 165.951 243.029 166.269 243.255 166.521C243.483 166.77 243.772 166.955 244.12 167.078C244.471 167.197 244.849 167.257 245.253 167.257C245.724 167.257 246.147 167.181 246.521 167.028C246.896 166.872 247.192 166.657 247.411 166.382C247.63 166.103 247.739 165.779 247.739 165.407C247.739 165.069 247.645 164.794 247.456 164.582C247.267 164.37 247.018 164.198 246.71 164.065C246.402 163.932 246.069 163.816 245.711 163.717L244.458 163.359C243.662 163.13 243.033 162.804 242.569 162.38C242.105 161.955 241.873 161.4 241.873 160.714C241.873 160.144 242.027 159.647 242.335 159.223C242.647 158.795 243.064 158.464 243.588 158.228C244.115 157.99 244.703 157.87 245.353 157.87C246.009 157.87 246.592 157.988 247.103 158.223C247.613 158.455 248.018 158.774 248.316 159.178C248.617 159.582 248.777 160.041 248.793 160.555H247.6ZM254.221 168.331C253.565 168.331 252.98 168.218 252.466 167.993C251.955 167.767 251.549 167.454 251.248 167.053C250.95 166.649 250.787 166.18 250.761 165.646H252.013C252.04 165.974 252.153 166.257 252.352 166.496C252.55 166.731 252.811 166.914 253.132 167.043C253.454 167.172 253.81 167.237 254.201 167.237C254.638 167.237 255.026 167.161 255.364 167.008C255.702 166.856 255.968 166.644 256.16 166.372C256.352 166.1 256.448 165.785 256.448 165.427C256.448 165.053 256.355 164.723 256.17 164.438C255.984 164.15 255.712 163.924 255.354 163.762C254.996 163.599 254.559 163.518 254.042 163.518H253.227V162.424H254.042C254.446 162.424 254.801 162.351 255.106 162.206C255.414 162.06 255.654 161.854 255.827 161.589C256.002 161.324 256.09 161.012 256.09 160.654C256.09 160.31 256.014 160.01 255.862 159.755C255.709 159.499 255.494 159.301 255.215 159.158C254.94 159.016 254.615 158.944 254.241 158.944C253.889 158.944 253.558 159.009 253.246 159.138C252.938 159.264 252.686 159.448 252.491 159.69C252.295 159.929 252.189 160.217 252.173 160.555H250.979C250.999 160.021 251.16 159.554 251.462 159.153C251.763 158.749 252.158 158.434 252.645 158.208C253.135 157.983 253.674 157.87 254.261 157.87C254.89 157.87 255.431 157.998 255.881 158.253C256.332 158.505 256.679 158.838 256.92 159.252C257.162 159.667 257.283 160.114 257.283 160.595C257.283 161.168 257.133 161.657 256.831 162.061C256.533 162.466 256.127 162.746 255.613 162.902V162.981C256.256 163.087 256.758 163.361 257.119 163.801C257.481 164.239 257.661 164.781 257.661 165.427C257.661 165.981 257.51 166.478 257.209 166.919C256.911 167.356 256.503 167.701 255.986 167.953C255.469 168.205 254.88 168.331 254.221 168.331ZM268.027 162.554V163.647H263.572V162.554H268.027ZM282.381 161.191H281.148C281.075 160.837 280.948 160.525 280.765 160.257C280.586 159.988 280.368 159.763 280.109 159.581C279.854 159.395 279.571 159.256 279.259 159.163C278.948 159.07 278.623 159.024 278.285 159.024C277.668 159.024 277.11 159.18 276.609 159.491C276.112 159.803 275.716 160.262 275.421 160.868C275.129 161.475 274.983 162.219 274.983 163.1C274.983 163.982 275.129 164.726 275.421 165.333C275.716 165.939 276.112 166.398 276.609 166.71C277.11 167.021 277.668 167.177 278.285 167.177C278.623 167.177 278.948 167.131 279.259 167.038C279.571 166.945 279.854 166.808 280.109 166.625C280.368 166.44 280.586 166.213 280.765 165.944C280.948 165.672 281.075 165.361 281.148 165.01H282.381C282.288 165.53 282.119 165.996 281.874 166.407C281.629 166.818 281.324 167.167 280.959 167.456C280.595 167.741 280.185 167.958 279.731 168.107C279.281 168.256 278.798 168.331 278.285 168.331C277.416 168.331 276.644 168.118 275.968 167.694C275.292 167.27 274.76 166.667 274.372 165.885C273.984 165.102 273.79 164.174 273.79 163.1C273.79 162.027 273.984 161.099 274.372 160.316C274.76 159.534 275.292 158.931 275.968 158.507C276.644 158.083 277.416 157.87 278.285 157.87C278.798 157.87 279.281 157.945 279.731 158.094C280.185 158.243 280.595 158.462 280.959 158.75C281.324 159.035 281.629 159.383 281.874 159.794C282.119 160.202 282.288 160.668 282.381 161.191ZM284.214 168.191V160.555H285.348V161.708H285.428C285.567 161.331 285.819 161.024 286.183 160.789C286.548 160.553 286.959 160.436 287.416 160.436C287.502 160.436 287.61 160.437 287.739 160.441C287.869 160.444 287.966 160.449 288.033 160.456V161.649C287.993 161.639 287.902 161.624 287.759 161.604C287.62 161.581 287.473 161.569 287.317 161.569C286.946 161.569 286.614 161.647 286.322 161.803C286.034 161.955 285.805 162.167 285.636 162.439C285.471 162.708 285.388 163.014 285.388 163.359V168.191H284.214ZM289.423 168.191V160.555H290.597V168.191H289.423ZM290.02 159.282C289.791 159.282 289.594 159.204 289.428 159.049C289.266 158.893 289.185 158.706 289.185 158.487C289.185 158.268 289.266 158.081 289.428 157.925C289.594 157.769 289.791 157.691 290.02 157.691C290.249 157.691 290.444 157.769 290.607 157.925C290.772 158.081 290.855 158.268 290.855 158.487C290.855 158.706 290.772 158.893 290.607 159.049C290.444 159.204 290.249 159.282 290.02 159.282ZM296.067 160.555V161.549H292.109V160.555H296.067ZM293.263 158.725H294.436V166.004C294.436 166.335 294.484 166.584 294.58 166.75C294.68 166.912 294.806 167.021 294.958 167.078C295.114 167.131 295.278 167.157 295.45 167.157C295.58 167.157 295.686 167.151 295.768 167.137C295.851 167.121 295.918 167.108 295.967 167.098L296.206 168.152C296.126 168.181 296.015 168.211 295.873 168.241C295.73 168.274 295.55 168.291 295.331 168.291C295 168.291 294.675 168.22 294.357 168.077C294.042 167.935 293.78 167.717 293.571 167.426C293.366 167.134 293.263 166.766 293.263 166.322V158.725ZM297.832 168.191V160.555H299.005V168.191H297.832ZM298.428 159.282C298.2 159.282 298.002 159.204 297.837 159.049C297.674 158.893 297.593 158.706 297.593 158.487C297.593 158.268 297.674 158.081 297.837 157.925C298.002 157.769 298.2 157.691 298.428 157.691C298.657 157.691 298.853 157.769 299.015 157.925C299.181 158.081 299.263 158.268 299.263 158.487C299.263 158.706 299.181 158.893 299.015 159.049C298.853 159.204 298.657 159.282 298.428 159.282ZM304.256 168.35C303.54 168.35 302.924 168.181 302.407 167.843C301.89 167.505 301.492 167.04 301.214 166.446C300.935 165.853 300.796 165.175 300.796 164.413C300.796 163.637 300.939 162.953 301.224 162.36C301.512 161.763 301.913 161.297 302.427 160.963C302.944 160.625 303.547 160.456 304.236 160.456C304.773 160.456 305.257 160.555 305.688 160.754C306.119 160.953 306.472 161.231 306.747 161.589C307.022 161.947 307.193 162.365 307.259 162.842H306.086C305.996 162.494 305.797 162.186 305.489 161.917C305.184 161.645 304.773 161.51 304.256 161.51C303.799 161.51 303.398 161.629 303.053 161.868C302.712 162.103 302.445 162.436 302.253 162.867C302.064 163.294 301.969 163.797 301.969 164.373C301.969 164.963 302.062 165.477 302.248 165.914C302.437 166.352 302.702 166.692 303.043 166.934C303.388 167.176 303.792 167.297 304.256 167.297C304.561 167.297 304.838 167.243 305.086 167.137C305.335 167.031 305.546 166.879 305.718 166.68C305.89 166.481 306.013 166.243 306.086 165.964H307.259C307.193 166.415 307.029 166.821 306.767 167.182C306.508 167.54 306.165 167.825 305.738 168.037C305.314 168.246 304.82 168.35 304.256 168.35ZM311.221 168.37C310.738 168.37 310.298 168.279 309.904 168.097C309.51 167.911 309.196 167.645 308.964 167.297C308.732 166.945 308.616 166.521 308.616 166.024C308.616 165.586 308.702 165.232 308.875 164.96C309.047 164.685 309.278 164.469 309.566 164.314C309.854 164.158 310.172 164.042 310.52 163.966C310.872 163.886 311.225 163.823 311.579 163.777C312.043 163.717 312.42 163.672 312.708 163.642C313 163.609 313.212 163.555 313.344 163.478C313.48 163.402 313.548 163.27 313.548 163.081V163.041C313.548 162.55 313.414 162.169 313.145 161.897C312.88 161.626 312.478 161.49 311.937 161.49C311.377 161.49 310.938 161.612 310.62 161.858C310.302 162.103 310.078 162.365 309.949 162.643L308.835 162.245C309.034 161.781 309.299 161.42 309.631 161.162C309.965 160.9 310.33 160.717 310.724 160.615C311.122 160.509 311.513 160.456 311.898 160.456C312.143 160.456 312.425 160.485 312.743 160.545C313.064 160.601 313.374 160.719 313.672 160.898C313.974 161.077 314.224 161.347 314.423 161.708C314.622 162.07 314.721 162.554 314.721 163.16V168.191H313.548V167.157H313.488C313.409 167.323 313.276 167.5 313.091 167.689C312.905 167.878 312.658 168.039 312.35 168.172C312.042 168.304 311.666 168.37 311.221 168.37ZM311.4 167.316C311.864 167.316 312.256 167.225 312.574 167.043C312.895 166.861 313.137 166.625 313.3 166.337C313.465 166.049 313.548 165.745 313.548 165.427V164.353C313.498 164.413 313.389 164.468 313.22 164.517C313.054 164.564 312.862 164.605 312.643 164.642C312.428 164.675 312.217 164.705 312.012 164.731C311.81 164.754 311.646 164.774 311.52 164.791C311.215 164.831 310.93 164.895 310.665 164.985C310.403 165.071 310.191 165.202 310.028 165.377C309.869 165.55 309.79 165.785 309.79 166.083C309.79 166.491 309.94 166.799 310.242 167.008C310.547 167.214 310.933 167.316 311.4 167.316ZM318.036 158.01V168.191H316.863V158.01H318.036Z" fill="#64748B"/>
</g>
<g filter="url(#filter2_d_329_15210)">
<path d="M10 150.736C10 146.318 13.5817 142.736 18 142.736H284.054C288.472 142.736 292.054 146.318 292.054 150.736V271.11C292.054 275.528 288.472 279.11 284.054 279.11H18C13.5817 279.11 10 275.528 10 271.11V150.736Z" fill="#F1F5F9"/>
<path d="M92.0273 194.923C92.0273 188.572 97.1761 183.423 103.527 183.423H198.527C204.879 183.423 210.027 188.572 210.027 194.923C210.027 201.275 204.879 206.423 198.527 206.423H103.527C97.1761 206.423 92.0273 201.275 92.0273 194.923Z" stroke="#E2E8F0"/>
<path d="M103.658 190.196V198.923H102.384V190.196H103.658ZM108.129 199.055C107.516 199.055 106.98 198.915 106.523 198.634C106.065 198.352 105.71 197.959 105.457 197.453C105.205 196.947 105.078 196.357 105.078 195.68C105.078 195.001 105.205 194.408 105.457 193.899C105.71 193.391 106.065 192.996 106.523 192.715C106.98 192.433 107.516 192.293 108.129 192.293C108.743 192.293 109.278 192.433 109.736 192.715C110.193 192.996 110.548 193.391 110.801 193.899C111.054 194.408 111.18 195.001 111.18 195.68C111.18 196.357 111.054 196.947 110.801 197.453C110.548 197.959 110.193 198.352 109.736 198.634C109.278 198.915 108.743 199.055 108.129 199.055ZM108.134 197.986C108.531 197.986 108.861 197.881 109.122 197.67C109.384 197.46 109.577 197.18 109.702 196.831C109.83 196.482 109.893 196.097 109.893 195.676C109.893 195.259 109.83 194.875 109.702 194.526C109.577 194.173 109.384 193.891 109.122 193.678C108.861 193.465 108.531 193.358 108.134 193.358C107.733 193.358 107.401 193.465 107.136 193.678C106.875 193.891 106.68 194.173 106.553 194.526C106.428 194.875 106.365 195.259 106.365 195.676C106.365 196.097 106.428 196.482 106.553 196.831C106.68 197.18 106.875 197.46 107.136 197.67C107.401 197.881 107.733 197.986 108.134 197.986ZM115.347 201.514C114.827 201.514 114.38 201.446 114.005 201.31C113.632 201.173 113.328 200.993 113.093 200.769C112.857 200.544 112.681 200.298 112.564 200.031L113.659 199.58C113.736 199.705 113.838 199.837 113.966 199.976C114.097 200.118 114.273 200.239 114.495 200.338C114.719 200.438 115.007 200.487 115.36 200.487C115.843 200.487 116.242 200.369 116.557 200.134C116.873 199.901 117.03 199.528 117.03 199.017V197.73H116.949C116.873 197.869 116.762 198.024 116.617 198.195C116.475 198.365 116.279 198.513 116.029 198.638C115.779 198.763 115.453 198.825 115.053 198.825C114.536 198.825 114.07 198.705 113.655 198.463C113.243 198.219 112.917 197.859 112.675 197.385C112.436 196.908 112.317 196.321 112.317 195.625C112.317 194.929 112.435 194.332 112.671 193.835C112.909 193.338 113.236 192.957 113.651 192.693C114.066 192.426 114.536 192.293 115.061 192.293C115.468 192.293 115.796 192.361 116.046 192.497C116.296 192.631 116.49 192.787 116.63 192.966C116.772 193.145 116.881 193.303 116.958 193.439H117.051V192.378H118.3V199.068C118.3 199.631 118.169 200.092 117.908 200.453C117.647 200.814 117.293 201.081 116.847 201.254C116.404 201.428 115.904 201.514 115.347 201.514ZM115.334 197.769C115.701 197.769 116.01 197.683 116.263 197.513C116.519 197.34 116.712 197.092 116.843 196.771C116.976 196.447 117.043 196.06 117.043 195.608C117.043 195.168 116.978 194.78 116.847 194.445C116.716 194.109 116.525 193.848 116.272 193.661C116.019 193.47 115.706 193.375 115.334 193.375C114.951 193.375 114.631 193.474 114.375 193.673C114.12 193.869 113.926 194.136 113.796 194.474C113.668 194.813 113.604 195.19 113.604 195.608C113.604 196.037 113.669 196.413 113.8 196.737C113.931 197.061 114.124 197.314 114.38 197.496C114.638 197.678 114.956 197.769 115.334 197.769ZM119.809 197.219V196.153L123.58 190.196H124.419V191.764H123.887L121.189 196.034V196.102H126.358V197.219H119.809ZM123.946 198.923V196.895L123.955 196.409V190.196H125.203V198.923H123.946ZM127.86 192.378H129.135V199.349C129.135 199.787 129.055 200.156 128.896 200.457C128.74 200.759 128.507 200.987 128.197 201.144C127.89 201.3 127.511 201.378 127.059 201.378C127.014 201.378 126.971 201.378 126.931 201.378C126.889 201.378 126.845 201.376 126.799 201.374V200.278C126.839 200.278 126.875 200.278 126.906 200.278C126.934 200.278 126.967 200.278 127.004 200.278C127.305 200.278 127.522 200.197 127.656 200.036C127.792 199.876 127.86 199.645 127.86 199.341V192.378ZM128.491 191.368C128.27 191.368 128.079 191.294 127.92 191.146C127.764 190.996 127.686 190.817 127.686 190.609C127.686 190.399 127.764 190.22 127.92 190.072C128.079 189.922 128.27 189.847 128.491 189.847C128.713 189.847 128.902 189.922 129.058 190.072C129.217 190.22 129.297 190.399 129.297 190.609C129.297 190.817 129.217 190.996 129.058 191.146C128.902 191.294 128.713 191.368 128.491 191.368ZM134.395 194.56C134.395 193.492 134.536 192.509 134.817 191.611C135.098 190.713 135.509 189.885 136.049 189.126H137.216C137.006 189.408 136.81 189.753 136.628 190.162C136.446 190.571 136.287 191.02 136.151 191.509C136.015 191.994 135.908 192.499 135.831 193.021C135.755 193.541 135.716 194.054 135.716 194.56C135.716 195.236 135.783 195.92 135.917 196.614C136.05 197.307 136.23 197.95 136.458 198.544C136.685 199.138 136.938 199.622 137.216 199.997H136.049C135.509 199.239 135.098 198.411 134.817 197.513C134.536 196.615 134.395 195.631 134.395 194.56ZM138.662 190.196H140.26L143.038 196.98H143.141L145.919 190.196H147.517V198.923H146.264V192.608H146.183L143.609 198.911H142.57L139.996 192.604H139.915V198.923H138.662V190.196ZM151.234 199.068C150.819 199.068 150.444 198.992 150.109 198.838C149.774 198.682 149.508 198.456 149.312 198.161C149.119 197.865 149.022 197.503 149.022 197.074C149.022 196.705 149.093 196.401 149.235 196.162C149.377 195.923 149.569 195.734 149.811 195.595C150.052 195.456 150.322 195.351 150.62 195.28C150.919 195.209 151.223 195.155 151.532 195.118C151.924 195.072 152.243 195.036 152.487 195.007C152.731 194.976 152.909 194.926 153.02 194.858C153.13 194.79 153.186 194.679 153.186 194.526V194.496C153.186 194.124 153.081 193.835 152.87 193.631C152.663 193.426 152.353 193.324 151.941 193.324C151.512 193.324 151.174 193.419 150.927 193.609C150.683 193.797 150.514 194.006 150.42 194.236L149.223 193.963C149.365 193.565 149.572 193.244 149.845 193C150.12 192.753 150.437 192.574 150.795 192.463C151.153 192.349 151.529 192.293 151.924 192.293C152.186 192.293 152.463 192.324 152.755 192.386C153.051 192.446 153.326 192.557 153.582 192.719C153.841 192.881 154.052 193.112 154.217 193.413C154.382 193.712 154.464 194.099 154.464 194.577V198.923H153.22V198.028H153.169C153.086 198.193 152.963 198.355 152.798 198.514C152.633 198.673 152.422 198.805 152.163 198.911C151.904 199.016 151.595 199.068 151.234 199.068ZM151.511 198.045C151.863 198.045 152.164 197.976 152.414 197.837C152.667 197.697 152.859 197.516 152.99 197.291C153.123 197.064 153.19 196.821 153.19 196.563V195.719C153.145 195.764 153.056 195.807 152.926 195.847C152.798 195.884 152.652 195.916 152.487 195.945C152.322 195.97 152.162 195.994 152.005 196.017C151.849 196.037 151.718 196.054 151.613 196.068C151.366 196.099 151.14 196.152 150.936 196.226C150.734 196.3 150.572 196.406 150.45 196.545C150.331 196.682 150.271 196.864 150.271 197.091C150.271 197.406 150.387 197.645 150.62 197.807C150.853 197.966 151.15 198.045 151.511 198.045ZM161.526 192.378L159.153 198.923H157.789L155.411 192.378H156.779L158.437 197.415H158.505L160.158 192.378H161.526ZM165.322 199.055C164.677 199.055 164.122 198.918 163.656 198.642C163.193 198.364 162.835 197.973 162.582 197.47C162.332 196.965 162.207 196.372 162.207 195.693C162.207 195.023 162.332 194.432 162.582 193.92C162.835 193.409 163.187 193.01 163.639 192.723C164.093 192.436 164.625 192.293 165.233 192.293C165.602 192.293 165.96 192.354 166.306 192.476C166.653 192.598 166.964 192.79 167.24 193.051C167.515 193.313 167.733 193.652 167.892 194.07C168.051 194.484 168.13 194.989 168.13 195.582V196.034H162.927V195.08H166.882C166.882 194.744 166.814 194.447 166.677 194.189C166.541 193.928 166.349 193.722 166.102 193.571C165.858 193.42 165.571 193.345 165.241 193.345C164.883 193.345 164.571 193.433 164.304 193.609C164.039 193.783 163.835 194.01 163.69 194.291C163.548 194.57 163.477 194.872 163.477 195.199V195.945C163.477 196.382 163.554 196.754 163.707 197.061C163.863 197.368 164.081 197.602 164.359 197.764C164.637 197.923 164.963 198.003 165.335 198.003C165.576 198.003 165.797 197.969 165.995 197.901C166.194 197.83 166.366 197.724 166.511 197.585C166.656 197.446 166.767 197.274 166.843 197.07L168.049 197.287C167.953 197.642 167.779 197.953 167.529 198.22C167.282 198.484 166.971 198.69 166.596 198.838C166.224 198.983 165.799 199.055 165.322 199.055ZM170.818 195.037V198.923H169.544V192.378H170.767V193.443H170.848C170.999 193.097 171.234 192.818 171.555 192.608C171.879 192.398 172.287 192.293 172.778 192.293C173.224 192.293 173.615 192.386 173.95 192.574C174.286 192.759 174.545 193.034 174.73 193.401C174.915 193.767 175.007 194.22 175.007 194.76V198.923H173.733V194.913C173.733 194.439 173.609 194.068 173.362 193.801C173.115 193.531 172.776 193.396 172.344 193.396C172.048 193.396 171.786 193.46 171.555 193.588C171.328 193.716 171.148 193.903 171.014 194.151C170.884 194.395 170.818 194.69 170.818 195.037ZM179.166 195.301C179.166 196.372 179.026 197.357 178.744 198.254C178.463 199.152 178.053 199.98 177.513 200.739H176.345C176.555 200.457 176.751 200.112 176.933 199.703C177.115 199.294 177.274 198.847 177.411 198.361C177.547 197.872 177.653 197.367 177.73 196.844C177.807 196.321 177.845 195.807 177.845 195.301C177.845 194.628 177.778 193.945 177.645 193.251C177.511 192.558 177.331 191.915 177.104 191.321C176.876 190.727 176.624 190.243 176.345 189.868H177.513C178.053 190.626 178.463 191.455 178.744 192.352C179.026 193.25 179.166 194.233 179.166 195.301Z" fill="#020617"/>
<path d="M195.277 189.673H198.777M198.777 189.673V193.173M198.777 189.673L192.361 196.09M197.027 195.507V199.007C197.027 199.316 196.904 199.613 196.686 199.832C196.467 200.05 196.17 200.173 195.861 200.173H189.444C189.135 200.173 188.838 200.05 188.619 199.832C188.4 199.613 188.277 199.316 188.277 199.007V192.59C188.277 192.281 188.4 191.984 188.619 191.765C188.838 191.546 189.135 191.423 189.444 191.423H192.944" stroke="#030712" stroke-linecap="round" stroke-linejoin="round"/>
<path d="M113.676 233.923H110.534V223.742H113.815C114.803 223.742 115.648 223.945 116.35 224.353C117.053 224.757 117.592 225.339 117.966 226.098C118.341 226.854 118.528 227.759 118.528 228.813C118.528 229.873 118.339 230.786 117.961 231.552C117.583 232.314 117.033 232.901 116.311 233.312C115.588 233.72 114.71 233.923 113.676 233.923ZM111.767 232.83H113.596C114.438 232.83 115.136 232.667 115.689 232.342C116.243 232.018 116.655 231.555 116.927 230.955C117.199 230.355 117.335 229.641 117.335 228.813C117.335 227.991 117.201 227.283 116.932 226.69C116.664 226.093 116.263 225.636 115.729 225.318C115.195 224.996 114.531 224.835 113.735 224.835H111.767V232.83ZM123.639 234.082C122.903 234.082 122.268 233.92 121.735 233.595C121.204 233.267 120.795 232.81 120.507 232.223C120.222 231.633 120.079 230.947 120.079 230.165C120.079 229.383 120.222 228.693 120.507 228.097C120.795 227.497 121.196 227.029 121.71 226.695C122.227 226.357 122.83 226.188 123.52 226.188C123.917 226.188 124.31 226.254 124.698 226.386C125.086 226.519 125.439 226.734 125.757 227.033C126.075 227.328 126.328 227.719 126.517 228.206C126.706 228.693 126.801 229.293 126.801 230.006V230.503H120.914V229.489H125.608C125.608 229.058 125.521 228.673 125.349 228.335C125.18 227.997 124.938 227.73 124.623 227.535C124.312 227.339 123.944 227.242 123.52 227.242C123.052 227.242 122.648 227.358 122.306 227.59C121.968 227.818 121.708 228.117 121.526 228.484C121.344 228.852 121.252 229.247 121.252 229.668V230.344C121.252 230.92 121.352 231.409 121.551 231.81C121.753 232.208 122.033 232.511 122.391 232.72C122.749 232.926 123.165 233.028 123.639 233.028C123.947 233.028 124.225 232.985 124.474 232.899C124.726 232.81 124.943 232.677 125.125 232.501C125.308 232.322 125.449 232.1 125.548 231.835L126.681 232.153C126.562 232.538 126.362 232.876 126.08 233.168C125.798 233.456 125.45 233.681 125.036 233.844C124.622 234.003 124.156 234.082 123.639 234.082ZM128.586 236.787V226.287H129.719V227.5H129.858C129.944 227.367 130.064 227.198 130.216 226.993C130.372 226.784 130.594 226.599 130.882 226.436C131.174 226.27 131.569 226.188 132.066 226.188C132.709 226.188 133.275 226.348 133.766 226.67C134.257 226.991 134.639 227.447 134.914 228.037C135.19 228.627 135.327 229.323 135.327 230.125C135.327 230.934 135.19 231.635 134.914 232.228C134.639 232.818 134.258 233.275 133.771 233.6C133.284 233.922 132.722 234.082 132.086 234.082C131.595 234.082 131.202 234.001 130.907 233.839C130.612 233.673 130.385 233.486 130.226 233.277C130.067 233.065 129.944 232.889 129.858 232.75H129.759V236.787H128.586ZM129.739 230.105C129.739 230.682 129.824 231.191 129.993 231.631C130.162 232.069 130.408 232.412 130.733 232.661C131.058 232.906 131.456 233.028 131.926 233.028C132.417 233.028 132.826 232.899 133.154 232.641C133.486 232.379 133.734 232.028 133.9 231.587C134.069 231.143 134.154 230.649 134.154 230.105C134.154 229.568 134.071 229.084 133.905 228.653C133.743 228.219 133.496 227.876 133.164 227.624C132.836 227.369 132.424 227.242 131.926 227.242C131.449 227.242 131.048 227.362 130.723 227.604C130.399 227.843 130.153 228.178 129.988 228.609C129.822 229.036 129.739 229.535 129.739 230.105ZM140.319 234.082C139.583 234.082 138.948 233.92 138.414 233.595C137.884 233.267 137.475 232.81 137.186 232.223C136.901 231.633 136.759 230.947 136.759 230.165C136.759 229.383 136.901 228.693 137.186 228.097C137.475 227.497 137.876 227.029 138.39 226.695C138.907 226.357 139.51 226.188 140.199 226.188C140.597 226.188 140.99 226.254 141.377 226.386C141.765 226.519 142.118 226.734 142.436 227.033C142.755 227.328 143.008 227.719 143.197 228.206C143.386 228.693 143.48 229.293 143.48 230.006V230.503H137.594V229.489H142.287C142.287 229.058 142.201 228.673 142.029 228.335C141.86 227.997 141.618 227.73 141.303 227.535C140.991 227.339 140.623 227.242 140.199 227.242C139.732 227.242 139.328 227.358 138.986 227.59C138.648 227.818 138.388 228.117 138.206 228.484C138.023 228.852 137.932 229.247 137.932 229.668V230.344C137.932 230.92 138.032 231.409 138.23 231.81C138.433 232.208 138.713 232.511 139.071 232.72C139.429 232.926 139.845 233.028 140.319 233.028C140.627 233.028 140.905 232.985 141.154 232.899C141.406 232.81 141.623 232.677 141.805 232.501C141.987 232.322 142.128 232.1 142.228 231.835L143.361 232.153C143.242 232.538 143.041 232.876 142.76 233.168C142.478 233.456 142.13 233.681 141.716 233.844C141.301 234.003 140.836 234.082 140.319 234.082ZM146.439 229.33V233.923H145.265V226.287H146.399V227.48H146.498C146.677 227.092 146.949 226.781 147.314 226.545C147.678 226.307 148.149 226.188 148.725 226.188C149.243 226.188 149.695 226.294 150.083 226.506C150.471 226.715 150.772 227.033 150.988 227.46C151.203 227.885 151.311 228.421 151.311 229.071V233.923H150.137V229.151C150.137 228.551 149.982 228.083 149.67 227.749C149.359 227.411 148.931 227.242 148.387 227.242C148.013 227.242 147.678 227.323 147.383 227.485C147.092 227.648 146.861 227.885 146.692 228.196C146.523 228.508 146.439 228.885 146.439 229.33ZM156.338 234.082C155.702 234.082 155.14 233.922 154.653 233.6C154.166 233.275 153.785 232.818 153.509 232.228C153.234 231.635 153.097 230.934 153.097 230.125C153.097 229.323 153.234 228.627 153.509 228.037C153.785 227.447 154.167 226.991 154.658 226.67C155.148 226.348 155.715 226.188 156.358 226.188C156.855 226.188 157.248 226.27 157.536 226.436C157.828 226.599 158.05 226.784 158.203 226.993C158.358 227.198 158.479 227.367 158.566 227.5H158.665V223.742H159.838V233.923H158.705V232.75H158.566C158.479 232.889 158.357 233.065 158.198 233.277C158.039 233.486 157.811 233.673 157.517 233.839C157.222 234.001 156.829 234.082 156.338 234.082ZM156.497 233.028C156.968 233.028 157.366 232.906 157.691 232.661C158.015 232.412 158.262 232.069 158.431 231.631C158.6 231.191 158.685 230.682 158.685 230.105C158.685 229.535 158.602 229.036 158.436 228.609C158.271 228.178 158.025 227.843 157.7 227.604C157.376 227.362 156.975 227.242 156.497 227.242C156 227.242 155.586 227.369 155.254 227.624C154.926 227.876 154.679 228.219 154.514 228.653C154.351 229.084 154.27 229.568 154.27 230.105C154.27 230.649 154.353 231.143 154.519 231.587C154.688 232.028 154.936 232.379 155.264 232.641C155.596 232.899 156.007 233.028 156.497 233.028ZM165.352 234.082C164.616 234.082 163.981 233.92 163.448 233.595C162.917 233.267 162.508 232.81 162.22 232.223C161.935 231.633 161.792 230.947 161.792 230.165C161.792 229.383 161.935 228.693 162.22 228.097C162.508 227.497 162.909 227.029 163.423 226.695C163.94 226.357 164.543 226.188 165.232 226.188C165.63 226.188 166.023 226.254 166.411 226.386C166.798 226.519 167.151 226.734 167.47 227.033C167.788 227.328 168.041 227.719 168.23 228.206C168.419 228.693 168.514 229.293 168.514 230.006V230.503H162.627V229.489H167.32C167.32 229.058 167.234 228.673 167.062 228.335C166.893 227.997 166.651 227.73 166.336 227.535C166.025 227.339 165.657 227.242 165.232 227.242C164.765 227.242 164.361 227.358 164.019 227.59C163.681 227.818 163.421 228.117 163.239 228.484C163.057 228.852 162.965 229.247 162.965 229.668V230.344C162.965 230.92 163.065 231.409 163.264 231.81C163.466 232.208 163.746 232.511 164.104 232.72C164.462 232.926 164.878 233.028 165.352 233.028C165.66 233.028 165.938 232.985 166.187 232.899C166.439 232.81 166.656 232.677 166.838 232.501C167.021 232.322 167.161 232.1 167.261 231.835L168.394 232.153C168.275 232.538 168.075 232.876 167.793 233.168C167.511 233.456 167.163 233.681 166.749 233.844C166.334 234.003 165.869 234.082 165.352 234.082ZM171.472 229.33V233.923H170.298V226.287H171.432V227.48H171.531C171.71 227.092 171.982 226.781 172.347 226.545C172.711 226.307 173.182 226.188 173.759 226.188C174.276 226.188 174.728 226.294 175.116 226.506C175.504 226.715 175.805 227.033 176.021 227.46C176.236 227.885 176.344 228.421 176.344 229.071V233.923H175.171V229.151C175.171 228.551 175.015 228.083 174.703 227.749C174.392 227.411 173.964 227.242 173.421 227.242C173.046 227.242 172.711 227.323 172.416 227.485C172.125 227.648 171.894 227.885 171.725 228.196C171.556 228.508 171.472 228.885 171.472 229.33ZM181.59 234.082C180.874 234.082 180.258 233.913 179.741 233.575C179.224 233.237 178.826 232.772 178.548 232.178C178.269 231.585 178.13 230.907 178.13 230.145C178.13 229.369 178.272 228.685 178.558 228.092C178.846 227.495 179.247 227.029 179.761 226.695C180.278 226.357 180.881 226.188 181.57 226.188C182.107 226.188 182.591 226.287 183.022 226.486C183.453 226.685 183.806 226.963 184.081 227.321C184.356 227.679 184.527 228.097 184.593 228.574H183.42C183.33 228.226 183.131 227.918 182.823 227.649C182.518 227.377 182.107 227.242 181.59 227.242C181.133 227.242 180.732 227.361 180.387 227.599C180.046 227.835 179.779 228.168 179.587 228.599C179.398 229.026 179.303 229.528 179.303 230.105C179.303 230.695 179.396 231.209 179.582 231.646C179.771 232.084 180.036 232.424 180.377 232.666C180.722 232.907 181.126 233.028 181.59 233.028C181.895 233.028 182.172 232.975 182.42 232.869C182.669 232.763 182.879 232.611 183.052 232.412C183.224 232.213 183.347 231.974 183.42 231.696H184.593C184.527 232.147 184.363 232.553 184.101 232.914C183.842 233.272 183.499 233.557 183.072 233.769C182.647 233.978 182.154 234.082 181.59 234.082ZM187.064 236.787C186.865 236.787 186.688 236.77 186.532 236.737C186.376 236.707 186.268 236.678 186.209 236.648L186.507 235.614C186.792 235.687 187.044 235.713 187.263 235.693C187.482 235.673 187.675 235.576 187.844 235.4C188.017 235.228 188.174 234.947 188.317 234.56L188.536 233.963L185.712 226.287H186.984L189.092 232.372H189.172L191.28 226.287H192.553L189.311 235.037C189.165 235.431 188.985 235.758 188.769 236.016C188.554 236.278 188.304 236.472 188.018 236.598C187.737 236.724 187.419 236.787 187.064 236.787Z" fill="#64748B"/>
</g>
<defs>
<filter id="filter0_d_329_15210" x="229.946" y="0" width="314.054" height="168.374" filterUnits="userSpaceOnUse" color-interpolation-filters="sRGB">
<feFlood flood-opacity="0" result="BackgroundImageFix"/>
<feColorMatrix in="SourceAlpha" type="matrix" values="0 0 0 0 0 0 0 0 0 0 0 0 0 0 0 0 0 0 127 0" result="hardAlpha"/>
<feMorphology radius="8" operator="erode" in="SourceAlpha" result="effect1_dropShadow_329_15210"/>
<feOffset dx="6" dy="-4"/>
<feGaussianBlur stdDeviation="12"/>
<feComposite in2="hardAlpha" operator="out"/>
<feColorMatrix type="matrix" values="0 0 0 0 0 0 0 0 0 0 0 0 0 0 0 0 0 0 0.25 0"/>
<feBlend mode="normal" in2="BackgroundImageFix" result="effect1_dropShadow_329_15210"/>
<feBlend mode="normal" in="SourceGraphic" in2="effect1_dropShadow_329_15210" result="shape"/>
</filter>
<filter id="filter1_d_329_15210" x="114.584" y="60.0044" width="314.054" height="168.374" filterUnits="userSpaceOnUse" color-interpolation-filters="sRGB">
<feFlood flood-opacity="0" result="BackgroundImageFix"/>
<feColorMatrix in="SourceAlpha" type="matrix" values="0 0 0 0 0 0 0 0 0 0 0 0 0 0 0 0 0 0 127 0" result="hardAlpha"/>
<feMorphology radius="8" operator="erode" in="SourceAlpha" result="effect1_dropShadow_329_15210"/>
<feOffset dx="6" dy="-4"/>
<feGaussianBlur stdDeviation="12"/>
<feComposite in2="hardAlpha" operator="out"/>
<feColorMatrix type="matrix" values="0 0 0 0 0 0 0 0 0 0 0 0 0 0 0 0 0 0 0.25 0"/>
<feBlend mode="normal" in2="BackgroundImageFix" result="effect1_dropShadow_329_15210"/>
<feBlend mode="normal" in="SourceGraphic" in2="effect1_dropShadow_329_15210" result="shape"/>
</filter>
<filter id="filter2_d_329_15210" x="0" y="122.736" width="314.054" height="168.374" filterUnits="userSpaceOnUse" color-interpolation-filters="sRGB">
<feFlood flood-opacity="0" result="BackgroundImageFix"/>
<feColorMatrix in="SourceAlpha" type="matrix" values="0 0 0 0 0 0 0 0 0 0 0 0 0 0 0 0 0 0 127 0" result="hardAlpha"/>
<feMorphology radius="8" operator="erode" in="SourceAlpha" result="effect1_dropShadow_329_15210"/>
<feOffset dx="6" dy="-4"/>
<feGaussianBlur stdDeviation="12"/>
<feComposite in2="hardAlpha" operator="out"/>
<feColorMatrix type="matrix" values="0 0 0 0 0 0 0 0 0 0 0 0 0 0 0 0 0 0 0.25 0"/>
<feBlend mode="normal" in2="BackgroundImageFix" result="effect1_dropShadow_329_15210"/>
<feBlend mode="normal" in="SourceGraphic" in2="effect1_dropShadow_329_15210" result="shape"/>
</filter>
</defs>
</svg>
