<svg width="25" height="25" viewBox="0 0 25 25" fill="none" xmlns="http://www.w3.org/2000/svg">
<path d="M3.9209 12.7018C3.9209 16.0974 5.89424 19.0319 8.75575 20.4225L4.66362 9.21053C4.18762 10.2774 3.9209 11.4581 3.9209 12.7018Z" fill="#464342"/>
<path d="M18.2909 12.2689C18.2909 11.2087 17.9101 10.4744 17.5834 9.90294C17.1486 9.1963 16.741 8.59788 16.741 7.89124C16.741 7.10265 17.3391 6.36858 18.1815 6.36858C18.2196 6.36858 18.2556 6.37332 18.2927 6.37544C16.7665 4.97717 14.733 4.12345 12.4997 4.12345C9.50268 4.12345 6.86595 5.66112 5.33203 7.99016C5.5333 7.9962 5.72298 8.00044 5.88409 8.00044C6.78139 8.00044 8.17036 7.89156 8.17036 7.89156C8.6328 7.8643 8.68732 8.54352 8.22537 8.5982C8.22537 8.5982 7.76064 8.65289 7.24351 8.67999L10.3675 17.9721L12.2449 12.3417L10.9083 8.67966C10.4463 8.65256 10.0087 8.59788 10.0087 8.59788C9.54642 8.57078 9.60062 7.86398 10.0629 7.89124C10.0629 7.89124 11.4796 8.00011 12.3226 8.00011C13.2197 8.00011 14.6088 7.89124 14.6088 7.89124C15.0716 7.86398 15.1259 8.54319 14.6638 8.59788C14.6638 8.59788 14.1981 8.65256 13.682 8.67966L16.7821 17.9014L17.6378 15.0421C18.0087 13.8555 18.2909 13.0033 18.2909 12.2689Z" fill="#464342"/>
<path d="M12.6504 13.4525L10.0765 20.9317C10.845 21.1576 11.6578 21.2812 12.4999 21.2812C13.4989 21.2812 14.4569 21.1085 15.3486 20.7949C15.3256 20.7582 15.3047 20.7192 15.2876 20.6767L12.6504 13.4525Z" fill="#464342"/>
<path d="M20.0281 8.58594C20.0649 8.85919 20.0858 9.15252 20.0858 9.46806C20.0858 10.3386 19.9233 11.3172 19.4336 12.5408L16.8132 20.117C19.3635 18.6298 21.079 15.8667 21.079 12.7019C21.0791 11.2104 20.6981 9.80791 20.0281 8.58594Z" fill="#464342"/>
<path d="M12.5001 2.70215C6.98618 2.70215 2.5 7.188 2.5 12.7019C2.5 18.2165 6.98618 22.7021 12.5001 22.7021C18.0138 22.7021 22.5007 18.2165 22.5007 12.7019C22.5005 7.188 18.0138 2.70215 12.5001 2.70215ZM12.5001 22.2438C7.23903 22.2438 2.95853 17.9633 2.95853 12.7019C2.95853 7.44085 7.23887 3.16067 12.5001 3.16067C17.761 3.16067 22.0411 7.44085 22.0411 12.7019C22.0411 17.9633 17.761 22.2438 12.5001 22.2438Z" fill="#464342"/>
</svg>
